<?xml version="1.0" encoding="UTF-8" standalone="no"?>
<!-- Created with Inkscape (http://www.inkscape.org/) -->

<svg
   version="1.1"
   id="svg2"
   width="955.02667"
   height="758.09332"
   viewBox="0 0 955.02667 758.09332"
   sodipodi:docname="ACD_logoEPS.eps"
   xmlns:inkscape="http://www.inkscape.org/namespaces/inkscape"
   xmlns:sodipodi="http://sodipodi.sourceforge.net/DTD/sodipodi-0.dtd"
   xmlns="http://www.w3.org/2000/svg"
   xmlns:svg="http://www.w3.org/2000/svg">
  <defs
     id="defs6" />
  <sodipodi:namedview
     id="namedview4"
     pagecolor="#ffffff"
     bordercolor="#000000"
     borderopacity="0.25"
     inkscape:showpageshadow="2"
     inkscape:pageopacity="0.0"
     inkscape:pagecheckerboard="0"
     inkscape:deskcolor="#d1d1d1" />
  <g
     id="g8"
     inkscape:groupmode="layer"
     inkscape:label="ink_ext_XXXXXX"
     transform="matrix(1.3333333,0,0,-1.3333333,0,758.09333)">
    <g
       id="g10"
       transform="scale(0.1)">
      <path
         d="m 1413.21,4441.79 h -224.19 l -30.85,-132.15 H 957.004 l 239.396,800.59 h 214.64 l 239.4,-800.59 h -205.95 l -31.28,132.15 m -41.28,173.12 -70.38,287.8 -69.95,-287.8 h 140.33"
         style="fill:#000000;fill-opacity:1;fill-rule:nonzero;stroke:none"
         id="path12" />
      <path
         d="m 1702.57,4889.6 h 165.11 v -84.65 c 23.75,35.32 47.65,60.44 71.69,75.37 24.33,14.92 53.59,22.39 87.77,22.39 36.78,0 65.89,-8.19 87.32,-24.58 21.44,-16.38 38.97,-40.77 52.58,-73.18 27.8,37.87 53.15,63.53 76.03,77 22.89,13.84 51.13,20.76 84.73,20.76 49.53,0 88.2,-18.57 116,-55.71 27.81,-36.77 41.72,-94.47 41.72,-173.11 v -364.25 h -177.27 v 330.39 c 0,26.21 -4.06,45.69 -12.17,58.43 -11.88,20.03 -26.65,30.04 -44.32,30.04 -20.85,0 -37.65,-9.47 -50.4,-28.4 -12.74,-18.93 -19.11,-49.33 -19.11,-91.2 v -299.26 h -177.27 v 319.47 c 0,25.48 -1.16,42.78 -3.48,51.88 -3.77,14.56 -10.28,26.21 -19.55,34.95 -9.27,9.1 -20.13,13.65 -32.59,13.65 -20.27,0 -36.93,-9.65 -49.96,-28.94 -13.04,-19.3 -19.56,-50.97 -19.56,-95.02 v -295.99 h -177.27 v 579.96"
         style="fill:#000000;fill-opacity:1;fill-rule:nonzero;stroke:none"
         id="path14" />
      <path
         d="m 2559.81,4470.19 175.53,20.75 c 7.24,-26.21 17.38,-44.96 30.42,-56.24 13.03,-11.29 30.41,-16.93 52.13,-16.93 23.75,0 42.15,6.37 55.18,19.11 10.14,9.46 15.21,21.3 15.21,35.5 0,16.01 -6.66,28.39 -19.99,37.13 -9.56,6.19 -34.9,13.83 -76.03,22.94 -61.41,13.47 -104.13,25.85 -128.17,37.13 -23.75,11.65 -43.88,31.13 -60.39,58.44 -16.23,27.3 -24.34,58.43 -24.34,93.38 0,38.23 8.84,71.17 26.51,98.85 17.67,27.66 42,48.23 72.99,61.7 31,13.84 72.56,20.76 124.7,20.76 55.03,0 95.58,-5.28 121.65,-15.84 26.36,-10.56 48.23,-26.94 65.61,-49.15 17.67,-22.21 32.3,-52.24 43.88,-90.11 l -167.71,-20.75 c -4.35,18.57 -11.59,32.22 -21.72,40.96 -13.91,11.65 -30.71,17.47 -50.4,17.47 -19.99,0 -34.62,-4.55 -43.89,-13.65 -8.98,-8.74 -13.46,-19.48 -13.46,-32.22 0,-14.2 5.79,-24.94 17.37,-32.22 11.59,-7.28 36.79,-13.83 75.61,-19.66 58.79,-8.37 102.53,-20.02 131.21,-34.95 28.67,-14.93 50.54,-36.22 65.61,-63.89 15.35,-27.67 23.02,-58.07 23.02,-91.2 0,-33.5 -8.11,-66.08 -24.33,-97.76 -15.93,-31.67 -41.28,-56.97 -76.03,-75.9 -34.47,-18.57 -81.54,-27.86 -141.21,-27.86 -84.29,0 -144.39,15.11 -180.31,45.33 -35.63,30.22 -58.51,73.18 -68.65,128.88"
         style="fill:#000000;fill-opacity:1;fill-rule:nonzero;stroke:none"
         id="path16" />
      <path
         d="M 3348.4,5110.23 V 4889.6 h 97.32 v -162.19 h -97.32 v -205.89 c 0,-24.75 1.88,-41.13 5.65,-49.14 5.79,-12.38 15.93,-18.57 30.41,-18.57 13.04,0 31.28,4.73 54.75,14.2 l 13.03,-153.46 c -43.74,-12.01 -84.58,-18.02 -122.53,-18.02 -44.02,0 -76.46,7.1 -97.32,21.3 -20.85,14.2 -36.35,35.68 -46.49,64.44 -9.85,29.12 -14.77,76.09 -14.77,140.89 v 204.25 h -65.17 v 162.19 h 65.17 v 106.49 l 177.27,114.14"
         style="fill:#000000;fill-opacity:1;fill-rule:nonzero;stroke:none"
         id="path18" />
      <path
         d="m 4043.57,4544.46 h -354.54 c 3.19,-35.68 10.86,-62.25 23.03,-79.73 17.09,-25.12 39.39,-37.68 66.91,-37.68 17.38,0 33.89,5.46 49.53,16.38 9.56,6.92 19.84,19.12 30.85,36.59 l 174.23,-20.2 c -26.65,-58.26 -58.8,-100.12 -96.45,-125.61 -37.66,-25.12 -91.68,-37.68 -162.07,-37.68 -61.12,0 -109.2,10.74 -144.25,32.22 -35.04,21.84 -64.15,56.25 -87.33,103.21 -22.88,47.33 -34.32,102.85 -34.32,166.57 0,90.65 23.02,164.01 69.08,220.08 46.35,56.06 110.21,84.1 191.61,84.1 66.04,0 118.18,-12.57 156.41,-37.68 38.24,-25.12 67.35,-61.53 87.33,-109.23 19.99,-47.69 29.98,-109.76 29.98,-186.22 v -25.12 m -179.87,106.49 c -3.48,42.96 -12.75,73.73 -27.81,92.3 -14.77,18.56 -34.33,27.84 -58.66,27.84 -28.09,0 -50.54,-14.01 -67.34,-42.04 -10.72,-17.48 -17.53,-43.51 -20.42,-78.1 h 174.23"
         style="fill:#000000;fill-opacity:1;fill-rule:nonzero;stroke:none"
         id="path20" />
      <path
         d="m 4127.43,4889.6 h 165.53 v -95.02 c 15.93,41.14 32.3,69.35 49.1,84.64 17.09,15.66 38.09,23.49 63,23.49 26.07,0 54.6,-10.2 85.6,-30.58 l -54.75,-158.38 c -20.86,10.93 -37.37,16.39 -49.53,16.39 -23.17,0 -41.13,-12.02 -53.88,-36.05 -18.25,-33.86 -27.37,-97.2 -27.37,-190.04 v -194.41 h -177.7 v 579.96"
         style="fill:#000000;fill-opacity:1;fill-rule:nonzero;stroke:none"
         id="path22" />
      <path
         d="m 5028.54,5110.23 v -800.59 h -165.53 v 85.74 c -23.18,-36.41 -44.32,-60.99 -63.44,-73.73 -25.49,-16.75 -53.87,-25.12 -85.16,-25.12 -62.85,0 -110.93,30.04 -144.25,90.11 -33.02,60.07 -49.53,133.06 -49.53,218.99 0,96.11 18.25,169.65 54.75,220.62 36.78,50.97 83.42,76.46 139.9,76.46 27.52,0 52.43,-5.83 74.74,-17.48 22.59,-11.65 42.57,-29.12 59.95,-52.43 v 277.43 h 178.57 m -177.27,-508.97 c 0,45.51 -7.67,79.37 -23.02,101.57 -15.35,22.58 -34.76,33.86 -58.22,33.86 -20.57,0 -37.8,-10.74 -51.71,-32.22 -13.9,-21.48 -20.85,-57.52 -20.85,-108.13 0,-47.33 7.1,-82.1 21.29,-104.3 14.48,-21.85 32.29,-32.77 53.44,-32.77 22.59,0 41.42,11.11 56.48,33.31 15.06,22.21 22.59,58.44 22.59,108.68"
         style="fill:#000000;fill-opacity:1;fill-rule:nonzero;stroke:none"
         id="path24" />
      <path
         d="m 5296.62,4701.74 -169.01,22.39 c 6.37,37.14 15.5,66.26 27.37,87.38 12.16,21.48 29.54,40.04 52.14,55.7 16.22,11.29 38.52,20.02 66.91,26.21 28.38,6.19 59.09,9.29 92.11,9.29 53,0 95.59,-3.83 127.74,-11.47 32.15,-7.28 58.94,-22.76 80.38,-46.42 15.06,-16.38 26.93,-39.68 35.62,-69.9 8.69,-29.86 13.04,-58.44 13.04,-85.74 v -256.13 c 0,-27.3 1.3,-48.78 3.91,-64.43 2.89,-15.3 8.98,-34.96 18.25,-58.98 h -165.97 c -6.67,14.92 -11.01,26.21 -13.04,33.86 -2.03,8 -4.05,20.38 -6.08,37.13 -23.18,-28.03 -46.2,-48.06 -69.09,-60.07 -31.28,-16.02 -67.63,-24.03 -109.05,-24.03 -55.04,0 -96.89,16.02 -125.56,48.06 -28.39,32.04 -42.59,71.54 -42.59,118.5 0,44.05 10.28,80.28 30.85,108.68 20.57,28.39 58.51,49.51 113.84,63.34 66.33,16.75 109.34,28.4 129.04,34.96 19.7,6.91 40.55,15.83 62.57,26.75 0,27.31 -4.5,46.42 -13.47,57.35 -8.99,10.92 -24.77,16.38 -47.37,16.38 -28.96,0 -50.68,-5.83 -65.17,-17.48 -11.29,-9.1 -20.42,-26.21 -27.37,-51.33 M 5450,4584.88 c -24.34,-10.93 -49.68,-20.58 -76.04,-28.95 -35.92,-12.02 -58.66,-23.85 -68.21,-35.5 -9.85,-12.01 -14.78,-25.66 -14.78,-40.95 0,-17.48 4.78,-31.86 14.34,-43.15 9.85,-10.92 24.19,-16.38 43.01,-16.38 19.7,0 37.95,6.01 54.75,18.02 17.09,12.01 29.11,26.58 36.06,43.69 7.25,17.47 10.87,40.05 10.87,67.72 v 35.5"
         style="fill:#000000;fill-opacity:1;fill-rule:nonzero;stroke:none"
         id="path26" />
      <path
         d="m 5729.37,4889.6 h 165.1 v -84.65 c 23.75,35.32 47.65,60.44 71.69,75.37 24.33,14.92 53.59,22.39 87.77,22.39 36.78,0 65.89,-8.19 87.33,-24.58 21.43,-16.38 38.95,-40.77 52.57,-73.18 27.81,37.87 53.15,63.53 76.03,77 22.89,13.84 51.13,20.76 84.73,20.76 49.53,0 88.2,-18.57 116,-55.71 27.81,-36.77 41.71,-94.47 41.71,-173.11 v -364.25 h -177.26 v 330.39 c 0,26.21 -4.06,45.69 -12.17,58.43 -11.87,20.03 -26.65,30.04 -44.32,30.04 -20.85,0 -37.65,-9.47 -50.4,-28.4 -12.74,-18.93 -19.11,-49.33 -19.11,-91.2 v -299.26 h -177.27 v 319.47 c 0,25.48 -1.16,42.78 -3.48,51.88 -3.76,14.56 -10.28,26.21 -19.55,34.95 -9.27,9.1 -20.13,13.65 -32.59,13.65 -20.27,0 -36.93,-9.65 -49.96,-28.94 -13.04,-19.3 -19.55,-50.97 -19.55,-95.02 v -295.99 h -177.27 v 579.96"
         style="fill:#000000;fill-opacity:1;fill-rule:nonzero;stroke:none"
         id="path28" />
      <path
         d="m 6586.6,4470.19 175.53,20.75 c 7.25,-26.21 17.38,-44.96 30.42,-56.24 13.03,-11.29 30.41,-16.93 52.13,-16.93 23.76,0 42.15,6.37 55.18,19.11 10.14,9.46 15.21,21.3 15.21,35.5 0,16.01 -6.66,28.39 -19.98,37.13 -9.56,6.19 -34.91,13.83 -76.04,22.94 -61.41,13.47 -104.13,25.85 -128.17,37.13 -23.75,11.65 -43.88,31.13 -60.4,58.44 -16.21,27.3 -24.33,58.43 -24.33,93.38 0,38.23 8.84,71.17 26.51,98.85 17.66,27.66 42,48.23 72.99,61.7 30.99,13.84 72.56,20.76 124.7,20.76 55.03,0 95.58,-5.28 121.65,-15.84 26.36,-10.56 48.23,-26.94 65.61,-49.15 17.67,-22.21 32.3,-52.24 43.88,-90.11 l -167.71,-20.75 c -4.34,18.57 -11.58,32.22 -21.72,40.96 -13.91,11.65 -30.71,17.47 -50.4,17.47 -19.99,0 -34.62,-4.55 -43.89,-13.65 -8.97,-8.74 -13.47,-19.48 -13.47,-32.22 0,-14.2 5.8,-24.94 17.38,-32.22 11.59,-7.28 36.79,-13.83 75.61,-19.66 58.79,-8.37 102.53,-20.02 131.21,-34.95 28.67,-14.93 50.54,-36.22 65.61,-63.89 15.35,-27.67 23.02,-58.07 23.02,-91.2 0,-33.5 -8.11,-66.08 -24.33,-97.76 -15.93,-31.67 -41.28,-56.97 -76.03,-75.9 -34.47,-18.57 -81.54,-27.86 -141.21,-27.86 -84.29,0 -144.39,15.11 -180.31,45.33 -35.63,30.22 -58.51,73.18 -68.65,128.88"
         style="fill:#000000;fill-opacity:1;fill-rule:nonzero;stroke:none"
         id="path30" />
      <path
         d="m 2787.04,2932.32 176.42,-65.38 c -11.85,-60.66 -30.51,-111.33 -55.99,-152.02 -25.48,-40.68 -57.18,-71.38 -95.1,-92.08 -37.62,-20.71 -85.62,-31.06 -143.98,-31.06 -70.8,0 -128.72,12.53 -173.75,37.6 -44.73,25.42 -83.39,69.92 -115.98,133.49 -32.59,63.57 -48.89,144.93 -48.89,244.1 0,132.23 28.59,233.75 85.77,304.59 57.47,71.19 138.65,106.79 243.52,106.79 82.06,0 146.5,-20.34 193.3,-61.02 47.11,-40.69 82.07,-103.17 104.88,-187.44 l -177.75,-48.49 c -6.22,24.33 -12.74,42.14 -19.56,53.39 -11.25,18.89 -25.03,33.42 -41.32,43.59 -16.3,10.17 -34.52,15.26 -54.66,15.26 -45.63,0 -80.58,-22.52 -104.88,-67.56 -18.36,-33.42 -27.55,-85.91 -27.55,-157.47 0,-88.63 10.96,-149.48 32.89,-182.54 21.92,-32.69 52.73,-49.03 92.43,-49.03 38.51,0 67.54,13.26 87.1,39.77 19.85,26.52 34.21,65.02 43.1,115.51"
         style="fill:#000000;fill-opacity:1;fill-rule:nonzero;stroke:none"
         id="path32" />
      <path
         d="m 3050.56,3404.73 h 180.86 V 3110.5 c 24.59,31.24 49.03,53.58 73.32,67.02 24.3,13.44 53.03,20.16 86.21,20.16 49.18,0 87.84,-18.34 115.98,-55.03 28.45,-36.69 42.66,-92.99 42.66,-168.92 v -367.78 h -181.75 v 318.2 c 0,36.33 -5.48,61.94 -16.44,76.83 -10.96,15.25 -26.36,22.88 -46.21,22.88 -21.93,0 -39.7,-10.17 -53.33,-30.51 -13.63,-20.34 -20.44,-56.85 -20.44,-109.52 v -277.88 h -180.86 v 798.78"
         style="fill:#000000;fill-opacity:1;fill-rule:nonzero;stroke:none"
         id="path34" />
      <path
         d="m 4182.39,2840.24 h -362.61 c 3.26,-35.6 11.11,-62.11 23.55,-79.55 17.48,-25.06 40.29,-37.6 68.43,-37.6 17.78,0 34.67,5.45 50.66,16.35 9.78,6.9 20.29,19.07 31.55,36.51 l 178.2,-20.16 c -27.26,-58.12 -60.14,-99.9 -98.65,-125.33 -38.52,-25.06 -93.77,-37.59 -165.75,-37.59 -62.52,0 -111.69,10.72 -147.54,32.15 -35.85,21.79 -65.62,56.12 -89.32,102.98 -23.41,47.22 -35.11,102.62 -35.11,166.18 0,90.45 23.56,163.65 70.66,219.59 47.4,55.94 112.72,83.91 195.97,83.91 67.55,0 120.87,-12.53 159.98,-37.6 39.1,-25.06 68.88,-61.38 89.32,-108.97 20.44,-47.59 30.66,-109.52 30.66,-185.81 v -25.06 m -183.97,106.25 c -3.56,42.87 -13.04,73.56 -28.44,92.08 -15.11,18.53 -35.11,27.79 -60,27.79 -28.73,0 -51.69,-13.98 -68.87,-41.95 -10.97,-17.44 -17.93,-43.41 -20.89,-77.92 h 178.2"
         style="fill:#000000;fill-opacity:1;fill-rule:nonzero;stroke:none"
         id="path36" />
      <path
         d="m 4267.71,3184.6 h 168.86 v -84.45 c 24.3,35.23 48.74,60.3 73.33,75.19 24.88,14.89 54.8,22.34 89.76,22.34 37.63,0 67.4,-8.18 89.32,-24.52 21.93,-16.35 39.85,-40.68 53.77,-73.01 28.44,37.78 54.36,63.39 77.77,76.82 23.4,13.81 52.28,20.71 86.65,20.71 50.66,0 90.21,-18.53 118.65,-55.58 28.44,-36.69 42.66,-94.26 42.66,-172.72 v -363.43 h -181.3 v 329.64 c 0,26.16 -4.15,45.59 -12.45,58.3 -12.14,19.99 -27.25,29.97 -45.32,29.97 -21.34,0 -38.52,-9.44 -51.55,-28.33 -13.04,-18.89 -19.56,-49.22 -19.56,-90.99 V 2605.95 H 4577 v 318.75 c 0,25.43 -1.19,42.68 -3.55,51.76 -3.86,14.53 -10.52,26.15 -20,34.87 -9.48,9.08 -20.59,13.62 -33.33,13.62 -20.74,0 -37.77,-9.62 -51.1,-28.88 -13.34,-19.25 -20,-50.85 -20,-94.8 v -295.32 h -181.31 v 578.65"
         style="fill:#000000;fill-opacity:1;fill-rule:nonzero;stroke:none"
         id="path38" />
      <path
         d="m 5183.13,3404.73 h 180.86 V 3253.8 h -180.86 v 150.93 m 0,-220.13 h 180.86 v -578.65 h -180.86 v 578.65"
         style="fill:#000000;fill-opacity:1;fill-rule:nonzero;stroke:none"
         id="path40" />
      <path
         d="m 5446.65,2766.14 179.53,20.7 c 7.4,-26.15 17.77,-44.86 31.1,-56.12 13.33,-11.26 31.11,-16.89 53.33,-16.89 24.29,0 43.1,6.36 56.44,19.07 10.36,9.45 15.55,21.25 15.55,35.42 0,15.98 -6.81,28.33 -20.44,37.05 -9.78,6.18 -35.7,13.8 -77.77,22.88 -62.8,13.45 -106.5,25.8 -131.09,37.05 -24.29,11.63 -44.89,31.06 -61.77,58.31 -16.59,27.24 -24.89,58.3 -24.89,93.17 0,38.14 9.04,71.02 27.11,98.62 18.07,27.61 42.96,48.14 74.66,61.57 31.7,13.81 74.21,20.71 127.54,20.71 56.28,0 97.76,-5.27 124.42,-15.8 26.96,-10.54 49.33,-26.88 67.1,-49.04 18.07,-22.16 33.03,-52.13 44.89,-89.91 l -171.54,-20.7 c -4.44,18.52 -11.85,32.15 -22.21,40.86 -14.23,11.63 -31.41,17.44 -51.56,17.44 -20.44,0 -35.39,-4.54 -44.87,-13.62 -9.19,-8.72 -13.78,-19.43 -13.78,-32.15 0,-14.17 5.92,-24.88 17.78,-32.15 11.84,-7.26 37.62,-13.8 77.32,-19.61 60.13,-8.36 104.87,-19.98 134.2,-34.87 29.33,-14.9 51.69,-36.15 67.1,-63.75 15.7,-27.61 23.55,-57.94 23.55,-91 0,-33.42 -8.3,-65.93 -24.89,-97.53 -16.29,-31.6 -42.21,-56.85 -77.76,-75.74 -35.25,-18.52 -83.4,-27.79 -144.42,-27.79 -86.21,0 -147.69,15.08 -184.42,45.23 -36.44,30.15 -59.84,73.01 -70.21,128.59"
         style="fill:#000000;fill-opacity:1;fill-rule:nonzero;stroke:none"
         id="path42" />
      <path
         d="m 6386.95,2832.07 171.98,-23.98 c -9.48,-43.95 -25.04,-82.09 -46.66,-114.42 -21.63,-31.97 -49.33,-56.85 -83.1,-74.65 -33.48,-17.8 -76.14,-26.7 -127.98,-26.7 -50.07,0 -91.84,5.63 -125.31,16.89 -33.19,11.63 -61.77,30.15 -85.77,55.58 -24,25.79 -42.81,55.94 -56.44,90.45 -13.63,34.51 -20.44,80.28 -20.44,137.31 0,59.57 8.3,109.16 24.89,148.75 12.14,29.06 28.73,55.03 49.77,77.92 21.03,23.24 42.66,40.5 64.88,51.76 35.25,17.8 80.43,26.7 135.53,26.7 77.03,0 135.68,-16.89 175.98,-50.67 40.58,-33.79 69.02,-83.19 85.31,-148.21 l -170.19,-27.79 c -5.33,24.7 -15.11,43.23 -29.33,55.58 -13.93,12.71 -32.74,19.07 -56.44,19.07 -29.92,0 -54.21,-13.26 -72.87,-39.78 -18.37,-26.15 -27.56,-65.93 -27.56,-119.33 0,-47.58 9.19,-83.72 27.56,-108.42 18.36,-24.7 41.77,-37.06 70.21,-37.06 23.7,0 43.55,7.45 59.55,22.34 16.29,14.9 28.43,37.78 36.43,68.66"
         style="fill:#000000;fill-opacity:1;fill-rule:nonzero;stroke:none"
         id="path44" />
      <path
         d="M 6625.14,3404.73 H 6806 V 3110.5 c 24.59,31.24 49.03,53.58 73.32,67.02 24.3,13.44 53.04,20.16 86.22,20.16 49.17,0 87.83,-18.34 115.98,-55.03 28.44,-36.69 42.66,-92.99 42.66,-168.92 v -367.78 h -181.75 v 318.2 c 0,36.33 -5.48,61.94 -16.45,76.83 -10.96,15.25 -26.36,22.88 -46.21,22.88 -21.93,0 -39.7,-10.17 -53.33,-30.51 -13.62,-20.34 -20.44,-56.85 -20.44,-109.52 v -277.88 h -180.86 v 798.78"
         style="fill:#000000;fill-opacity:1;fill-rule:nonzero;stroke:none"
         id="path46" />
      <path
         d="m 3456.28,1650.69 h 299.77 c 59.09,0 106.75,-9.37 142.99,-28.11 36.52,-18.75 66.66,-45.65 90.41,-80.7 23.76,-35.05 40.98,-75.83 51.68,-122.34 10.68,-46.51 16.03,-95.79 16.03,-147.86 0,-81.56 -8.02,-144.9 -24.05,-190.02 -15.74,-44.77 -37.72,-82.43 -65.93,-112.969 -28.21,-30.199 -58.5,-50.328 -90.86,-60.394 -44.25,-13.883 -84.34,-20.824 -120.27,-20.824 h -299.77 v 763.217 m 201.78,-172.84 v -417.01 h 49.44 c 42.16,0 72.16,5.38 89.98,16.14 17.81,11.1 31.77,30.19 41.87,57.26 10.09,27.42 15.14,71.67 15.14,132.76 0,80.87 -11.28,136.23 -33.85,166.07 -22.57,29.85 -59.99,44.78 -112.25,44.78 h -50.33"
         style="fill:#000000;fill-opacity:1;fill-rule:nonzero;stroke:none"
         id="path48" />
      <path
         d="m 4157.38,1650.69 h 181.28 v -144.21 h -181.28 v 144.21 m 0,-210.33 h 181.28 V 887.473 h -181.28 v 552.887"
         style="fill:#000000;fill-opacity:1;fill-rule:nonzero;stroke:none"
         id="path50" />
      <path
         d="m 4421.52,1040.54 179.94,19.78 c 7.43,-24.99 17.83,-42.87 31.18,-53.62 13.37,-10.766 31.18,-16.145 53.46,-16.145 24.35,0 43.2,6.074 56.57,18.225 10.39,9.02 15.59,20.3 15.59,33.84 0,15.27 -6.83,27.07 -20.49,35.4 -9.8,5.9 -35.79,13.19 -77.95,21.86 -62.96,12.85 -106.76,24.65 -131.4,35.41 -24.35,11.1 -44.99,29.67 -61.92,55.7 -16.62,26.03 -24.94,55.71 -24.94,89.03 0,36.44 9.06,67.85 27.17,94.23 18.11,26.37 43.06,45.98 74.83,58.82 31.78,13.19 74.39,19.79 127.84,19.79 56.42,0 97.99,-5.04 124.72,-15.1 27.02,-10.06 49.44,-25.69 67.26,-46.85 18.11,-21.18 33.1,-49.81 44.98,-85.91 l -171.93,-19.78 c -4.45,17.7 -11.88,30.72 -22.27,39.05 -14.25,11.1 -31.48,16.66 -51.67,16.66 -20.49,0 -35.49,-4.34 -44.99,-13.02 -9.2,-8.33 -13.81,-18.57 -13.8,-30.71 -0.01,-13.54 5.93,-23.78 17.81,-30.72 11.88,-6.94 37.71,-13.19 77.51,-18.74 60.28,-7.99 105.12,-19.09 134.52,-33.32 29.39,-14.23 51.81,-34.54 67.25,-60.91 15.74,-26.38 23.61,-55.36 23.61,-86.95 0,-31.93 -8.31,-62.99 -24.94,-93.185 -16.34,-30.195 -42.32,-54.316 -77.96,-72.363 -35.33,-17.703 -83.59,-26.551 -144.76,-26.551 -86.41,0 -148.03,14.402 -184.85,43.207 -36.52,28.809 -59.98,69.762 -70.37,122.872"
         style="fill:#000000;fill-opacity:1;fill-rule:nonzero;stroke:none"
         id="path52" />
      <path
         d="m 5012.15,677.148 v 763.212 h 169.71 v -81.73 c 23.45,34.36 44.98,57.61 64.58,69.76 26.43,16.31 55.68,24.47 87.75,24.47 63.25,0 112.1,-28.29 146.54,-84.86 34.75,-56.57 52.12,-126.51 52.12,-209.81 0,-91.97 -18.86,-162.256 -56.57,-210.846 -37.71,-48.242 -85.37,-72.364 -142.98,-72.364 -27.92,0 -53.45,5.551 -76.61,16.661 -22.87,11.105 -43.36,27.589 -61.47,49.457 v -263.95 h -183.07 m 181.73,485.212 c 0,-43.73 7.87,-76.19 23.61,-97.36 15.74,-21.17 35.63,-31.75 59.69,-31.75 21.08,0 38.75,10.06 53,30.19 14.25,20.48 21.38,55.01 21.38,103.6 0,44.77 -7.42,77.57 -22.27,98.4 -14.85,21.17 -32.96,31.76 -54.34,31.76 -23.16,0 -42.47,-10.59 -57.91,-31.76 -15.44,-21.17 -23.16,-55.53 -23.16,-103.08"
         style="fill:#000000;fill-opacity:1;fill-rule:nonzero;stroke:none"
         id="path54" />
      <path
         d="m 6117.25,887.473 h -169.27 v 89.547 c -25.24,-36.79 -50.77,-62.997 -76.61,-78.614 -25.54,-15.617 -57.01,-23.426 -94.43,-23.426 -49.89,0 -89.08,17.352 -117.59,52.059 -28.21,35.055 -42.31,88.851 -42.31,161.391 v 351.93 h 182.17 v -304.04 c 0,-34.7 5.5,-59.34 16.49,-73.92 10.98,-14.58 26.42,-21.86 46.32,-21.86 21.68,0 39.34,9.71 53,29.15 13.96,19.44 20.94,54.31 20.94,104.64 v 266.03 h 181.29 V 887.473"
         style="fill:#000000;fill-opacity:1;fill-rule:nonzero;stroke:none"
         id="path56" />
      <path
         d="m 6726.59,887.473 h -169.27 v 89.547 c -25.23,-36.79 -50.77,-62.997 -76.61,-78.614 -25.53,-15.617 -57.01,-23.426 -94.43,-23.426 -49.89,0 -89.08,17.352 -117.59,52.059 -28.21,35.055 -42.31,88.851 -42.31,161.391 v 351.93 h 182.17 v -304.04 c 0,-34.7 5.5,-59.34 16.49,-73.92 10.98,-14.58 26.42,-21.86 46.32,-21.86 21.68,0 39.34,9.71 53,29.15 13.96,19.44 20.94,54.31 20.94,104.64 v 266.03 h 181.29 V 887.473"
         style="fill:#000000;fill-opacity:1;fill-rule:nonzero;stroke:none"
         id="path58" />
      <path
         d="m 7056.2,1650.69 v -210.33 h 99.78 v -154.62 h -99.78 v -196.27 c 0,-23.6 1.93,-39.22 5.79,-46.85 5.94,-11.8 16.33,-17.71 31.18,-17.71 13.36,0 32.07,4.52 56.12,13.54 l 13.37,-146.29 c -44.84,-11.453 -86.71,-17.18 -125.61,-17.18 -45.14,0 -78.4,6.766 -99.78,20.305 -21.38,13.535 -37.27,34.012 -47.66,61.43 -10.1,27.765 -15.15,72.535 -15.15,134.315 v 194.71 h -66.81 v 154.62 h 66.81 v 101.52 l 181.74,108.81"
         style="fill:#000000;fill-opacity:1;fill-rule:nonzero;stroke:none"
         id="path60" />
      <path
         d="m 2419.34,3993.27 c -611.31,0 -611.31,0 -611.31,0 v 0 c 0,0 9.1,-522.05 0,-556.85 -8.65,-33.1 -573.19,-987.68 -582.2,-1025.78 -9.1,-38.46 -31.3,-203.4 0,-351.69 30.93,-146.54 241.08,-292.73 291.1,-293.08 49.86,-0.35 1309.95,0 1309.95,0 v 234.46 H 1604.26 c 0,0 -118.28,23.81 -145.55,117.24 -27.76,95.1 -7.21,230.79 0.07,263.77 4.03,18.26 164.88,301.12 316.47,565.17 136.59,237.94 259,411.43 265.66,460.6 6.42,47.37 0.17,351.69 0.17,351.69 h 378.26 v 234.47"
         style="fill:#000000;fill-opacity:1;fill-rule:evenodd;stroke:none"
         id="path62" />
      <path
         d="m 3583.74,2234.8 c -611.31,0 -611.31,0 -611.31,0 v 0 c 0,0 9.09,-522.05 0,-556.85 -8.65,-33.09 -573.19,-987.684 -582.2,-1025.778 -9.1,-38.465 -31.3,-203.402 0,-351.695 30.93,-146.539 241.08,-292.727 291.1,-293.07856 49.86,-0.34766 1309.95,0 1309.95,0 V 241.863 H 2768.66 c 0,0 -118.28,23.813 -145.55,117.231 -27.77,95.105 -7.21,230.801 0.07,263.769 4.03,18.262 164.88,301.129 316.47,565.177 136.59,237.94 259,411.42 265.66,460.6 6.42,47.38 0.17,351.69 0.17,351.69 h 378.26 v 234.47"
         style="fill:#000000;fill-opacity:1;fill-rule:evenodd;stroke:none"
         id="path64" />
      <path
         d="m 1209.67,5692.97 c -611.311,0 -611.311,0 -611.311,0 v 0 c 0,0 9.098,-522.05 0,-556.85 -8.648,-33.09 -573.1871,-987.68 -582.1988,-1025.78 -9.0977,-38.46 -31.2969,-203.4 0,-351.69 30.9296,-146.54 241.0818,-292.73 291.1018,-293.08 49.859,-0.35 1309.948,0 1309.948,0 v 234.47 H 394.59 c 0,0 -118.274,23.81 -145.551,117.23 -27.766,95.1 -7.207,230.79 0.07,263.77 4.032,18.26 164.887,301.12 316.469,565.17 136.598,237.94 259,411.43 265.66,460.6 6.422,47.38 0.172,351.69 0.172,351.69 h 378.26 v 234.47"
         style="fill:#000000;fill-opacity:1;fill-rule:evenodd;stroke:none"
         id="path66" />
    </g>
  </g>
</svg>
